<?xml version="1.0" standalone="no"?>
<!DOCTYPE svg PUBLIC "-//W3C//DTD SVG 20010904//EN"
 "http://www.w3.org/TR/2001/REC-SVG-20010904/DTD/svg10.dtd">
<svg version="1.0" xmlns="http://www.w3.org/2000/svg"
 width="640.000000pt" height="640.000000pt" viewBox="0 0 640.000000 640.000000"
 preserveAspectRatio="xMidYMid meet">
<metadata>
Created by potrace 1.14, written by Peter Selinger 2001-2017
</metadata>
<g transform="translate(0.000000,640.000000) scale(0.100000,-0.100000)"
fill="#000000" stroke="none">
<path d="M70 6381 c0 -10 -7 -21 -15 -25 -16 -6 -21 -31 -7 -39 4 -2 1 -2 -7
0 -10 3 -12 -5 -8 -32 6 -36 0 -44 -21 -23 -9 9 -12 2 -12 -33 0 -25 5 -50 11
-56 8 -8 8 -13 0 -17 -8 -5 -11 -878 -11 -3082 l0 -3074 3200 0 c2127 0 3200
3 3200 10 0 6 -9 10 -20 10 -12 0 -24 10 -30 23 -5 12 -9 17 -9 10 -1 -6 -10
-9 -21 -6 -24 6 -27 23 -4 23 9 0 23 8 30 18 12 15 15 15 23 2 8 -12 13 -12
23 -2 10 10 10 15 -2 22 -18 11 -18 83 1 106 10 13 10 17 -1 24 -11 7 -11 12
-2 23 9 10 12 746 12 3075 l0 3062 -3165 0 c-3099 0 -3165 0 -3165 -19z m-17
-221 c-7 -8 -22 24 -16 34 4 5 10 1 13 -10 4 -10 6 -21 3 -24z m3189 -974 c13
-14 36 -28 51 -31 20 -5 27 -13 27 -32 0 -18 5 -23 18 -21 26 4 99 -59 116
-102 8 -21 23 -40 35 -43 12 -3 21 -11 21 -17 0 -9 -6 -8 -22 2 -24 15 -48 14
-48 -3 0 -5 4 -9 9 -9 6 0 22 -11 36 -24 28 -26 26 -48 -3 -45 -33 3 -42 -1
-42 -21 0 -25 -8 -25 -40 0 -14 11 -30 20 -35 20 -6 0 -22 11 -36 24 -14 13
-36 27 -50 31 -13 4 -27 12 -30 17 -11 18 -67 11 -100 -13 -86 -60 -227 -177
-273 -227 -28 -31 -66 -70 -83 -88 -18 -18 -33 -36 -33 -40 0 -4 -6 -15 -14
-23 -19 -23 -72 -163 -92 -246 -13 -54 -15 -96 -11 -190 8 -166 38 -271 138
-480 146 -305 245 -622 218 -702 -20 -61 -109 -55 -168 12 -16 19 -32 48 -36
65 -6 27 -66 191 -125 340 -241 607 -262 697 -225 935 20 135 78 295 108 303
12 3 16 10 11 24 -4 14 4 29 30 54 20 19 36 41 36 48 0 8 9 16 20 19 12 3 20
14 20 26 0 12 6 21 15 21 8 0 15 6 15 14 0 7 9 16 21 19 13 3 18 10 14 17 -7
12 33 47 49 42 14 -5 35 19 29 34 -3 9 5 18 24 27 17 6 30 16 31 22 1 17 22
18 22 1 0 -24 15 -19 28 9 6 14 16 25 21 25 5 0 12 11 15 25 4 15 28 41 56 61
28 20 50 39 50 43 0 4 12 14 28 22 15 8 46 29 70 47 24 17 47 32 51 32 5 0 19
-11 33 -24z m258 -360 c0 -3 -4 -8 -10 -11 -5 -3 -10 -1 -10 4 0 6 5 11 10 11
6 0 10 -2 10 -4z m105 -56 c3 -5 1 -10 -4 -10 -6 0 -11 5 -11 10 0 6 2 10 4
10 3 0 8 -4 11 -10z m172 -70 c21 -24 29 -80 11 -80 -4 0 -8 -7 -8 -15 0 -17
16 -20 25 -5 4 6 11 8 16 4 5 -3 6 -10 3 -16 -4 -6 1 -17 11 -24 19 -14 14
-46 -7 -42 -7 2 -13 -7 -14 -20 -2 -31 -14 -41 -14 -11 l-1 24 -18 -23 c-13
-15 -21 -18 -24 -10 -2 7 3 22 12 32 15 18 15 19 -1 13 -14 -5 -18 -1 -18 15
0 17 -3 19 -12 10 -22 -22 -82 24 -135 107 -33 51 -33 54 -17 72 10 11 23 18
29 15 7 -2 25 4 41 14 28 19 28 19 64 -8 19 -15 45 -38 57 -52z m123 -222 c20
-30 30 -88 16 -88 -6 0 -3 -5 7 -11 17 -10 23 -49 10 -63 -4 -3 -8 -16 -10
-27 -2 -16 1 -20 12 -15 9 3 15 0 15 -8 0 -8 6 -16 14 -19 30 -12 32 -147 2
-147 -7 0 -21 -9 -31 -20 -11 -13 -25 -18 -37 -14 -10 3 -18 1 -18 -4 0 -6 5
-12 12 -14 13 -5 -51 -68 -68 -68 -19 0 -26 33 -9 42 12 7 13 13 4 30 -7 13
-8 37 -3 67 4 25 7 73 5 107 -2 49 0 62 13 67 20 8 21 27 1 27 -8 0 -15 -4
-15 -10 0 -5 -7 -10 -15 -10 -14 0 -14 3 -1 23 7 12 16 36 20 52 l6 30 -19
-22 c-19 -22 -41 -31 -41 -15 0 15 40 72 51 72 6 0 9 -7 6 -14 -4 -10 -1 -13
9 -9 17 6 18 19 3 28 -6 4 -1 16 13 30 29 29 30 29 48 3z m15 -518 c-3 -5 -11
-10 -16 -10 -6 0 -7 5 -4 10 3 6 11 10 16 10 6 0 7 -4 4 -10z m45 0 c0 -5 -4
-10 -10 -10 -5 0 -10 5 -10 10 0 6 5 10 10 10 6 0 10 -4 10 -10z m-2075 -34
c44 -15 105 -43 136 -61 223 -136 435 -495 507 -860 10 -48 9 -51 -21 -86 -18
-21 -39 -38 -48 -38 -21 -1 -86 58 -106 96 -27 52 -64 148 -79 208 -9 33 -34
94 -56 135 -122 224 -244 341 -433 415 -48 19 -91 33 -94 30 -4 -2 -53 -5
-110 -7 -73 -2 -105 -6 -108 -15 -3 -8 -10 -12 -17 -11 -19 3 -54 -12 -60 -27
-3 -8 -10 -15 -15 -15 -6 0 -35 -16 -66 -35 -39 -25 -55 -42 -56 -58 0 -12 -3
-17 -5 -10 -3 7 -12 9 -20 6 -13 -5 -13 -8 1 -29 8 -12 11 -25 6 -28 -5 -3
-11 1 -15 9 -8 21 -32 18 -50 -6 -18 -26 -39 -16 -30 14 6 22 6 22 -9 2 -14
-19 -15 -80 -2 -93 7 -8 -16 -32 -31 -32 -24 0 -39 74 -17 91 7 6 11 15 8 19
-2 4 4 15 15 25 25 23 25 35 0 35 -23 0 -24 6 -5 40 8 14 14 35 15 46 1 54
247 244 315 244 17 0 35 4 41 9 13 14 64 18 204 16 106 -2 137 -6 205 -29z
m3058 8 c45 -14 90 -30 99 -35 10 -5 24 -9 31 -9 18 0 127 -78 127 -91 0 -5
18 -27 40 -49 22 -22 40 -49 40 -59 0 -10 7 -21 15 -25 8 -3 15 -14 15 -25 0
-11 6 -21 13 -24 8 -3 6 -9 -7 -19 -10 -8 -16 -20 -12 -26 7 -12 -33 -54 -44
-47 -5 3 -11 -7 -14 -21 -7 -25 -8 -25 -21 -8 -7 10 -11 22 -9 26 3 5 -6 8
-20 8 -16 0 -27 7 -31 20 -3 11 -13 20 -21 20 -8 0 -14 9 -14 20 0 11 -5 20
-12 20 -7 0 -31 18 -53 40 -105 103 -355 136 -491 65 -16 -8 -32 -15 -36 -15
-19 0 -131 -93 -182 -150 -53 -59 -116 -144 -116 -156 0 -3 -17 -31 -38 -62
-21 -31 -49 -78 -62 -105 -15 -29 -29 -46 -39 -45 -9 2 -17 -7 -21 -22 -4 -16
-14 -26 -28 -28 -27 -4 -29 -22 -3 -22 46 0 28 -127 -24 -170 -12 -10 -19 -10
-27 -2 -9 9 -6 18 12 37 25 27 25 27 -4 42 -19 10 -18 11 2 22 12 7 22 18 22
26 0 8 7 15 16 15 8 0 12 5 8 11 -4 8 -9 8 -17 0 -6 -6 -17 -11 -25 -11 -12 0
-12 3 -1 16 10 13 10 17 0 24 -8 4 -11 16 -7 28 4 12 0 26 -10 36 -11 11 -13
20 -6 29 5 7 13 33 16 59 5 32 14 53 29 64 18 13 18 15 3 10 -12 -4 -17 -2
-13 6 3 7 17 45 33 83 15 39 35 81 44 95 8 14 22 37 29 51 18 36 109 148 146
179 16 14 40 35 54 48 38 35 201 125 251 139 25 6 98 12 163 12 100 1 130 -3
200 -25z m-1003 4 c0 -27 -34 -176 -48 -213 -11 -27 -35 -93 -55 -145 -56
-148 -67 -171 -77 -165 -6 4 -7 -5 -4 -22 4 -20 0 -35 -14 -51 -18 -21 -29
-43 -47 -97 -6 -18 -7 -19 -19 -3 -9 12 -16 14 -31 6 -18 -11 -18 -11 0 -24
10 -8 16 -17 12 -20 -4 -4 -13 -2 -21 5 -15 13 -36 -2 -56 -40 -6 -10 -17 -19
-25 -19 -23 0 -18 15 10 30 13 7 22 18 18 23 -4 6 -10 4 -17 -5 -6 -8 -21 -20
-34 -27 -17 -9 -21 -17 -16 -37 5 -19 3 -23 -10 -18 -10 4 -18 0 -22 -10 -9
-24 -19 -19 -21 11 0 15 12 56 28 90 16 34 29 66 29 71 0 21 69 181 100 232 5
8 16 31 25 50 21 48 36 71 63 100 12 13 22 36 22 52 0 15 5 28 11 28 6 0 8 9
4 20 -4 11 -2 20 4 20 6 0 11 13 11 29 0 16 7 34 15 41 8 7 15 20 15 30 0 13
6 16 24 13 16 -3 28 2 38 15 12 18 32 26 76 31 6 0 12 0 12 -1z m1413 -405
c-7 -2 -19 -2 -25 0 -7 3 -2 5 12 5 14 0 19 -2 13 -5z m-4178 -49 c-8 -9 -20
-12 -26 -9 -6 5 -4 12 8 20 23 17 38 8 18 -11z m4195 -11 c0 -12 -7 -13 -27
-8 -33 8 -37 11 -29 23 9 14 56 2 56 -15z m-75 -14 c-7 -11 -35 -12 -35 -1 0
4 9 8 20 9 11 1 18 -2 15 -8z m45 -39 c8 -15 6 -21 -9 -29 -17 -9 -19 -8 -16
14 1 14 -2 25 -7 25 -5 0 -6 5 -3 10 8 13 22 5 35 -20z m-4185 -29 c4 -22 -19
-41 -50 -41 -15 0 -15 1 -1 16 9 8 16 21 16 29 0 7 6 15 13 18 15 5 17 4 22
-22z m4130 11 c14 -10 17 -39 5 -47 -8 -5 -30 32 -30 51 0 6 14 5 25 -4z m97
-34 c-15 -15 -24 -6 -16 16 5 12 10 14 17 7 8 -8 8 -14 -1 -23z m38 -22 c0 -2
-9 -6 -20 -9 -11 -3 -20 -1 -20 4 0 5 9 9 20 9 11 0 20 -2 20 -4z m-50 -31 c0
-8 -4 -15 -10 -15 -5 0 -10 7 -10 15 0 8 5 15 10 15 6 0 10 -7 10 -15z m-30
-15 c0 -5 -4 -10 -10 -10 -5 0 -10 5 -10 10 0 6 5 10 10 10 6 0 10 -4 10 -10z
m76 -21 c0 -8 -4 -20 -9 -26 -6 -9 -6 -13 2 -13 6 0 11 -7 11 -15 0 -17 -25
-20 -35 -5 -4 6 -13 3 -23 -9 -24 -27 -53 -15 -41 18 6 15 14 21 24 17 10 -4
15 1 15 14 0 11 7 20 15 20 8 0 15 5 15 11 0 16 25 5 26 -12z m-101 -19 c3 -5
1 -10 -4 -10 -6 0 -11 5 -11 10 0 6 2 10 4 10 3 0 8 -4 11 -10z m-7 -62 c11
-14 10 -16 -5 -14 -10 2 -17 6 -15 9 1 4 2 12 2 19 0 6 1 9 3 7 1 -2 8 -12 15
-21z m79 -15 c-9 -9 -20 -13 -24 -9 -4 4 -1 11 7 16 25 16 35 11 17 -7z
m-1862 -556 c61 -3 128 -6 150 -6 37 0 38 -1 24 -18 -26 -31 -11 -59 29 -54 6
1 12 -5 12 -14 0 -8 5 -15 10 -15 10 0 13 19 12 73 0 17 5 27 14 27 8 0 12 -4
9 -10 -3 -5 -1 -10 4 -10 16 0 13 -27 -2 -33 -14 -5 -17 -70 -4 -83 4 -4 7
-17 7 -28 l0 -20 -15 20 c-18 26 -68 48 -94 41 -12 -3 -22 1 -25 10 -4 8 -12
13 -20 10 -7 -3 -19 3 -27 14 -7 10 -19 19 -25 19 -7 0 -14 7 -16 16 -3 14 -6
13 -25 -4 -27 -23 -29 -32 -7 -32 8 0 13 -4 10 -9 -4 -5 -1 -11 5 -13 17 -6
-1 -38 -22 -38 -10 0 -19 4 -19 10 0 12 -33 0 -43 -16 -4 -7 -13 -11 -21 -8
-7 3 -33 0 -57 -6 -53 -12 -1174 -26 -1273 -15 -52 5 -66 10 -62 21 3 8 -1 14
-10 14 -8 0 -12 -4 -9 -10 3 -5 2 -10 -4 -10 -6 0 -8 15 -6 33 13 101 18 128
27 133 5 4 33 10 62 14 57 9 1237 6 1411 -3z m815 -2 c8 -7 25 -16 36 -19 17
-5 21 -12 16 -29 -5 -20 -4 -20 11 -8 9 7 17 10 17 5 0 -5 4 -3 9 5 13 20 45
6 36 -17 -4 -9 -9 -23 -12 -29 -3 -8 2 -13 12 -13 28 0 11 -22 -40 -54 -47
-29 -52 -30 -204 -34 -157 -4 -233 5 -293 35 -20 9 -28 10 -28 2 0 -7 -9 -9
-22 -6 -14 4 -26 0 -34 -11 -10 -14 -14 -14 -28 -3 -8 7 -15 16 -14 19 0 4 -1
9 -2 12 -1 3 -3 17 -4 33 -2 23 2 27 24 27 20 -1 22 -2 9 -10 -17 -10 -15 -60
2 -60 8 0 10 10 13 83 2 27 -9 37 -16 15 -3 -7 -7 -2 -11 11 -4 17 -2 21 10
17 8 -3 19 -6 25 -6 6 0 7 -7 4 -16 -4 -10 -1 -14 6 -11 7 2 12 14 11 26 -4
32 41 51 65 27 14 -13 14 -18 4 -25 -11 -7 -10 -10 3 -15 31 -11 37 -7 30 23
-8 37 -11 36 195 37 112 1 159 -2 170 -11z m-595 -25 c3 -5 -1 -10 -10 -10 -9
0 -13 5 -10 10 3 6 8 10 10 10 2 0 7 -4 10 -10z m-162 -75 c-3 -9 -8 -14 -10
-11 -3 3 -2 9 2 15 9 16 15 13 8 -4z m157 -55 c0 -5 -8 -10 -17 -10 -15 0 -16
2 -3 10 19 12 20 12 20 0z m-790 -359 l19 -38 -35 -84 c-18 -46 -34 -92 -34
-101 0 -10 -12 -52 -26 -93 -25 -72 -25 -75 -8 -107 9 -18 26 -51 37 -72 11
-21 40 -57 64 -80 62 -57 180 -135 217 -142 32 -6 157 24 192 46 11 7 41 45
68 86 27 41 63 87 81 103 18 16 38 38 44 49 11 21 5 79 -10 88 -5 3 -9 18 -9
34 0 16 -4 31 -9 34 -5 3 -12 30 -15 60 -4 30 -15 65 -25 78 -21 27 -23 115
-3 110 7 -1 12 9 12 23 0 24 10 32 23 19 3 -4 22 -8 41 -9 43 -2 70 -29 72
-71 0 -22 10 -43 30 -62 64 -64 96 -145 98 -247 1 -50 -19 -115 -35 -115 -18
0 -44 -36 -41 -54 3 -16 0 -18 -22 -12 -23 6 -29 2 -39 -23 -12 -29 -14 -30
-27 -11 -15 20 -35 17 -26 -5 3 -8 -3 -19 -11 -27 -15 -11 -16 -11 -10 5 3 9
3 17 -2 17 -16 0 -20 -13 -10 -31 7 -15 6 -21 -6 -25 -8 -3 -15 -12 -15 -20 0
-8 -8 -14 -17 -15 -11 0 -13 -3 -5 -6 8 -3 4 -11 -13 -25 -14 -11 -25 -28 -23
-38 4 -24 -53 -73 -132 -112 -57 -29 -74 -33 -145 -32 -151 1 -273 78 -441
280 -41 49 -80 114 -69 114 4 0 -1 10 -9 22 -12 16 -16 47 -16 115 0 87 2 97
41 180 23 48 46 90 50 91 5 2 9 9 9 17 0 7 12 33 26 59 45 81 129 95 164 27z"/>
<path d="M3098 5043 c7 -3 16 -2 19 1 4 3 -2 6 -13 5 -11 0 -14 -3 -6 -6z"/>
<path d="M3414 4906 c-7 -19 3 -36 21 -36 8 0 11 7 8 20 -7 27 -22 35 -29 16z"/>
<path d="M3797 4549 c-3 -13 -1 -19 6 -16 15 5 22 37 9 37 -5 0 -12 -9 -15
-21z"/>
<path d="M3854 4255 c2 -5 -1 -19 -7 -30 -5 -11 -6 -17 -2 -13 4 4 16 3 27 -3
26 -14 35 -4 17 18 -8 9 -9 14 -3 10 9 -5 24 11 24 27 0 2 -13 3 -30 2 -16 -1
-28 -5 -26 -11z"/>
<path d="M3940 4149 c0 -5 5 -7 10 -4 6 3 10 8 10 11 0 2 -4 4 -10 4 -5 0 -10
-5 -10 -11z"/>
<path d="M3888 4128 c9 -9 15 -9 24 0 9 9 7 12 -12 12 -19 0 -21 -3 -12 -12z"/>
<path d="M3830 4121 c0 -6 5 -13 10 -16 6 -3 10 1 10 9 0 9 -4 16 -10 16 -5 0
-10 -4 -10 -9z"/>
<path d="M3902 4098 c5 -15 28 -23 28 -10 0 5 -7 13 -16 16 -10 4 -14 1 -12
-6z"/>
<path d="M5242 3558 c-16 -16 -15 -29 2 -22 16 6 30 34 18 34 -5 0 -13 -5 -20
-12z"/>
<path d="M3630 2579 c0 -19 -1 -19 -16 -5 -19 20 -40 10 -23 -10 18 -21 88
-54 116 -54 29 0 21 17 -14 31 -13 5 -21 14 -18 19 7 11 -18 40 -34 40 -6 0
-11 -9 -11 -21z"/>
<path d="M3520 2500 c0 -5 5 -10 11 -10 5 0 7 5 4 10 -3 6 -8 10 -11 10 -2 0
-4 -4 -4 -10z"/>
<path d="M3896 2611 c-4 -5 -1 -13 5 -17 8 -4 7 -9 -2 -15 -11 -7 -10 -11 6
-24 19 -16 19 -16 -7 -11 -21 5 -26 3 -22 -8 3 -7 13 -13 22 -12 12 1 16 -5
14 -22 -3 -21 -1 -23 20 -17 31 10 31 10 19 32 -16 29 -25 57 -25 77 -1 21
-21 33 -30 17z"/>
<path d="M4285 2590 c3 -5 10 -10 16 -10 5 0 9 5 9 10 0 6 -7 10 -16 10 -8 0
-12 -4 -9 -10z"/>
<path d="M4356 2576 c3 -9 11 -16 16 -16 13 0 5 23 -10 28 -7 2 -10 -2 -6 -12z"/>
<path d="M3510 1470 c0 -5 5 -10 11 -10 5 0 7 5 4 10 -3 6 -8 10 -11 10 -2 0
-4 -4 -4 -10z"/>
</g>
</svg>
